<svg xmlns:xlink="http://www.w3.org/1999/xlink" xmlns="http://www.w3.org/2000/svg" xml:space="preserve" viewBox="0 0 70 84.0009994506836" height="120" width="100" y="0px" x="0px" id="Layer_1" preserveAspectRatio="xMidYMid meet">
<g>
	<g>
		<g>
			<path d="M28,42.073c7.68,0,13.927,6.247,13.927,13.927S35.68,69.928,28,69.928c-7.68,0-13.927-6.248-13.927-13.928     S20.32,42.073,28,42.073 M28,28C12.536,28,0,40.537,0,56c0,15.465,12.536,28.001,28,28.001c15.464,0,28-12.536,28-28.001     C56,40.537,43.464,28,28,28L28,28z"></path>
		</g>
		<g>
			<rect height="56" width="14" x="56"></rect>
		</g>
		<g>
			<rect height="14.001" width="14" fill="#e8007a" y="70" x="56"></rect>
		</g>
	</g>
</g>
</svg>