<svg xmlns="http://www.w3.org/2000/svg" viewbox="0 0 108 108" width="90px" height="90px" style="box-shadow: none; border-radius: 0px; opacity: 1;" viewBox="0 0 108 108" preserveAspectRatio="xMidYMid meet"><defs></defs><title>feature-voice</title><g data-name="Layer 1" id="Layer_1"><path d="M54,4A50,50,0,1,1,4,54,50,50,0,0,1,54,4m0-4a54,54,0,1,0,54,54A54,54,0,0,0,54,0Z" class="cls-1" style="fill: #1a1a1a;"></path></g><g data-name="Layer 3"><path d="M61.5,60.83c6.58-7.55,10.83-13,7.67-17.17-2.73-3.59-9-10-9-10l9-10S86.17,27.5,85.33,43c-.42,7.82-6.25,19.58-13.83,27.17l-.67.67c-7.58,7.58-19.34,13.41-27.17,13.83C28.17,85.5,24.33,68.5,24.33,68.5l10-9s6.41,6.27,10,9C48.5,71.67,53.95,67.41,61.5,60.83Z" class="cls-2" style="fill: none; stroke: #1a1a1a; stroke-linecap: round; stroke-linejoin: round; stroke-width: 4px;"></path></g></svg>