<?xml version="1.0" encoding="utf-8"?>
<!-- Generator: Adobe Illustrator 19.2.0, SVG Export Plug-In . SVG Version: 6.00 Build 0)  -->
<svg version="1.1" id="Layer_1" xmlns="http://www.w3.org/2000/svg" xmlns:xlink="http://www.w3.org/1999/xlink" x="0px" y="0px"
	 height="90" width="90" viewBox="0 0 108 108" style="enable-background:new 0 0 108 108;" xml:space="preserve">
<style type="text/css">
	.st0{fill:#4FA4DB;}
	.st1{fill:none;stroke:#1A1A1A;stroke-width:6;stroke-linecap:round;stroke-linejoin:round;stroke-miterlimit:10;}
	.st2{fill:none;stroke:#1A1A1A;stroke-width:6;stroke-linecap:round;stroke-miterlimit:10;}
	.st3{fill:#E8007A;}
	.st4{fill:#1A1A1A;}
	.st5{fill:#FFFFFF;}
	.st6{fill:#FF0000;}
	.st7{fill-rule:evenodd;clip-rule:evenodd;fill:#00ABE8;}
	.st8{fill:#00ABE8;}
	.st9{fill:none;stroke:#CCCCCC;stroke-miterlimit:10;}
	.st10{fill:none;stroke:#1A1A1A;stroke-width:4;stroke-linecap:round;stroke-linejoin:round;stroke-miterlimit:10;}
	.st11{fill:none;stroke:#000000;stroke-width:6;stroke-miterlimit:10;}
	.st12{filter:url(#Adobe_OpacityMaskFilter);}
	.st13{mask:url(#mask-2_1_);}
	.st14{fill:none;stroke:#333333;stroke-width:8;stroke-linecap:round;}
	.st15{fill:#3FA9F5;}
	.st16{fill:#7AC943;}
	.st17{fill:none;stroke:#1A1A1A;stroke-width:4;stroke-linecap:round;stroke-miterlimit:10;}
	.st18{fill:#FFFFFF;stroke:#1A1A1A;stroke-width:6;stroke-linecap:round;stroke-linejoin:round;stroke-miterlimit:10;}
	.st19{fill:#FFFFFF;stroke:#1A1A1A;stroke-width:4;stroke-linecap:round;stroke-linejoin:round;stroke-miterlimit:10;}
	.st20{fill:none;stroke:#000000;stroke-width:4;stroke-linecap:round;stroke-linejoin:round;stroke-miterlimit:10;}
	.st21{fill:none;stroke:#FF1D25;stroke-width:4;stroke-linecap:round;stroke-linejoin:round;stroke-miterlimit:10;}
</style>
<g>
	<path class="st4" d="M54,4c27.6,0,50,22.4,50,50c0,27.6-22.4,50-50,50C26.4,104,4,81.6,4,54C4,26.4,26.4,4,54,4 M54,0
		C24.2,0,0,24.2,0,54c0,29.8,24.2,54,54,54c29.8,0,54-24.2,54-54C108,24.2,83.8,0,54,0L54,0z"/>
</g>
<g>
	<path class="st19" d="M45.6,70.1c-1.7-3-2.6-7.4-2.5-11.1c0.2-10.7,9.1-19.2,19.8-18.9C73.6,40.4,82,49.3,81.8,60
		c-0.3,10.7-9.1,19.2-19.8,18.9c-2,0-2.9-0.4-4.7-1c-2.9,2.2-10.1,4.2-15.5,1.9C46.1,76.9,46.5,72,45.6,70.1z"/>
	<g>
		<path class="st19" d="M62,56.3c1.2-3.1,1.4-7.5,0.8-10.9c-1.8-10.2-11.5-17-21.6-15.2C31.1,32,24.3,41.7,26,51.8
			C27.8,62,37.5,68.8,47.7,67c1.9-0.3,2.7-0.8,4.4-1.6c3.1,1.7,10.2,2.5,15.1-0.5C62.5,62.9,61.4,58.3,62,56.3z"/>
		<g>
			<circle class="st4" cx="52.4" cy="49.4" r="2.5"/>
			<circle class="st4" cx="44.4" cy="49.4" r="2.5"/>
			<circle class="st4" cx="36.4" cy="49.4" r="2.5"/>
		</g>
	</g>
</g>
</svg>
