<?xml version="1.0" encoding="utf-8"?>
<!-- Generator: Adobe Illustrator 16.0.0, SVG Export Plug-In . SVG Version: 6.00 Build 0)  -->
<!DOCTYPE svg PUBLIC "-//W3C//DTD SVG 1.1//EN" "http://www.w3.org/Graphics/SVG/1.1/DTD/svg11.dtd">
<svg version="1.1" id="Layer_1" xmlns="http://www.w3.org/2000/svg" xmlns:xlink="http://www.w3.org/1999/xlink" x="0px" y="0px"
	 width="90" height="90" viewBox="0 0 108 108" enable-background="new 0 0 108 108" xml:space="preserve">
<g>
	<path fill="#1A1A1A" d="M54,4c27.57,0,50,22.43,50,49.999C104,81.569,81.57,104,54,104S4,81.569,4,53.999C4,26.43,26.43,4,54,4
		 M54,0C24.176,0,0,24.176,0,53.999S24.176,108,54,108c29.822,0,54-24.178,54-54.001S83.822,0,54,0L54,0z"/>
</g>
<g>
	
		<line fill="none" stroke="#1A1A1A" stroke-width="4" stroke-linecap="round" stroke-linejoin="round" stroke-miterlimit="10" x1="54.725" y1="81" x2="54.725" y2="52.5"/>
	
		<polyline fill="none" stroke="#1A1A1A" stroke-width="4" stroke-linecap="round" stroke-linejoin="round" stroke-miterlimit="10" points="
		63,75.609 54.725,81 46.447,75.609 	"/>
</g>
<g>
	
		<line fill="none" stroke="#1A1A1A" stroke-width="4" stroke-linecap="round" stroke-linejoin="round" stroke-miterlimit="10" x1="35.277" y1="62.5" x2="35.277" y2="34"/>
	
		<polyline fill="none" stroke="#1A1A1A" stroke-width="4" stroke-linecap="round" stroke-linejoin="round" stroke-miterlimit="10" points="
		43.553,57.109 35.277,62.5 27,57.109 	"/>
</g>
<g>
	
		<line fill="none" stroke="#1A1A1A" stroke-width="4" stroke-linecap="round" stroke-linejoin="round" stroke-miterlimit="10" x1="74.277" y1="62.5" x2="74.277" y2="34"/>
	
		<polyline fill="none" stroke="#1A1A1A" stroke-width="4" stroke-linecap="round" stroke-linejoin="round" stroke-miterlimit="10" points="
		82.553,57.109 74.277,62.5 66,57.109 	"/>
</g>
</svg>
