<?xml version="1.0" encoding="utf-8"?>
<!-- Generator: Adobe Illustrator 19.2.0, SVG Export Plug-In . SVG Version: 6.00 Build 0)  -->
<svg version="1.1" id="Layer_1" xmlns="http://www.w3.org/2000/svg" xmlns:xlink="http://www.w3.org/1999/xlink" x="0px" y="0px"
	 height="90" width="90" viewBox="0 0 108 108" style="enable-background:new 0 0 108 108;" xml:space="preserve">
<style type="text/css">
	.st0{fill:#4FA4DB;}
	.st1{fill:none;stroke:#1A1A1A;stroke-width:6;stroke-linecap:round;stroke-linejoin:round;stroke-miterlimit:10;}
	.st2{fill:none;stroke:#1A1A1A;stroke-width:6;stroke-linecap:round;stroke-miterlimit:10;}
	.st3{fill:#E8007A;}
	.st4{fill:#1A1A1A;}
	.st5{fill:#FFFFFF;}
	.st6{fill:#FF0000;}
	.st7{fill-rule:evenodd;clip-rule:evenodd;fill:#00ABE8;}
	.st8{fill:#00ABE8;}
	.st9{fill:none;stroke:#CCCCCC;stroke-miterlimit:10;}
	.st10{fill:none;stroke:#1A1A1A;stroke-width:4;stroke-linecap:round;stroke-linejoin:round;stroke-miterlimit:10;}
	.st11{fill:none;stroke:#000000;stroke-width:6;stroke-miterlimit:10;}
	.st12{filter:url(#Adobe_OpacityMaskFilter);}
	.st13{mask:url(#mask-2_1_);}
	.st14{fill:none;stroke:#333333;stroke-width:8;stroke-linecap:round;}
	.st15{fill:#3FA9F5;}
	.st16{fill:#7AC943;}
	.st17{fill:none;stroke:#1A1A1A;stroke-width:4;stroke-linecap:round;stroke-miterlimit:10;}
	.st18{fill:#FFFFFF;stroke:#1A1A1A;stroke-width:6;stroke-linecap:round;stroke-linejoin:round;stroke-miterlimit:10;}
	.st19{fill:#FFFFFF;stroke:#1A1A1A;stroke-width:4;stroke-linecap:round;stroke-linejoin:round;stroke-miterlimit:10;}
	.st20{fill:none;stroke:#000000;stroke-width:4;stroke-linecap:round;stroke-linejoin:round;stroke-miterlimit:10;}
	.st21{fill:none;stroke:#FF1D25;stroke-width:4;stroke-linecap:round;stroke-linejoin:round;stroke-miterlimit:10;}
</style>
<g>
	<path d="M54,4c27.6,0,50,22.4,50,50c0,27.6-22.4,50-50,50S4,81.6,4,54C4,26.4,26.4,4,54,4 M54,0C24.2,0,0,24.2,0,54
		c0,29.8,24.2,54,54,54c29.8,0,54-24.2,54-54C108,24.2,83.8,0,54,0L54,0z"/>
</g>
<path class="st20" d="M6.9,39.8c1,0.1,5.8-1,6.9-1.5c0.9-0.5,2.2-1.1,3.3-1.2c2.4-0.5,4.1,0.4,5.6,2.1c0.7,0.9,1,1.8,1.5,2.8
	c0.5,1,1.3,1.5,2.1,2.4c1.8,1.9,1.2,3.5,1.9,5.7c0.6,2.1,1,4.6,2.8,6.3c0.9,0.9,2.2,1.3,3.1,2.2c0.9,0.8,1.8,1.7,2.8,2.5
	c1.6,1.3,4,4.5,5.6,3.1c0.2-0.2,1-6.3,1.8-6.9c0.5-0.3,0.1-1,0.2-1.3c0.3-0.7,0.7-1,1.1-1.6c0.8-0.7,1-1.7,1.9-2.5
	c0.8-0.7,4.6-1.5,4.7-1.7c0.3-0.5,3-2,3.2-2.7c0.4-1.1-0.9-2.1-1.5-2.8c-0.9-1.2-1.5-2.3-1.6-3.8c-0.2-1.1-0.4-2.3-0.4-3.4
	c0-1.1,0.7-1.9,0.8-2.9c0.5-2.2-3.1-3.7-4.3-5.5c-1.5-2.5-2-4-1.5-6.7c0.4-2.4,1.9-4.3,3.6-6.1c1.1-1.4,4.2-3.6,3.6-5.8
	c-1.1-3.4-5.5,0.4-6.8,1.4c-2.3,1.8-4.7,3-7.2,4.4c-2.2,1.3-5.2,2.3-6.9,4c-1,0.8-1.4,2-2,3c-0.5,0.9-1.6,1.8-2,2.7
	c-0.6,1.7,0,1.7-2.2,3c-2.2,1.2-3.9,1.6-6,0.2c-1.7-1-3.7-2.8-5.6-2c-0.7,0.2-2.3,1-2.9,1.4"/>
<path class="st20" d="M84.5,15c-4.8,2.2,3.1,10.2-1.6,12.1c-0.2-0.9-3.1,1.5-5,2.9c-1.3,1.1-3.4-0.5-4.7,1.6
	c-2.1,3.4-2,10.8,3.1,10.9c2,0.1,1.6-1.3,2.8-2.4c2.5-2.7,6.6,2.3,9.1,3.8c1.7,0.9,1.5-2.7,7.2-2.7c13.8,0,8.2,12.3-0.5,13
	c-1.9,0.1-4.5-0.8-5.9-0.9c-1.7-0.2-2.8,1.1-4.7,0c-1.7-1.1-1.4-2.4-3.9-2c-0.6,0-3.6,0.3-4.3,0.6c-1.7,0.9-4.7,3.8-4.9,5.8
	c-0.3,4.6,3,5.4,7.1,5.2c3.9-0.2,5.5,2,6,6c0.2,1.6-0.5,3.1-0.3,4.9c0.2,1.7,1,3.6,1.7,5.4c1.1,2.7,5.7,7.4,10.2,3.1"/>
<path class="st20" d="M44.7,72.7c-1,2.6,1.3,5,2.7,7.1c1.6,2.6,1.9,5,1.9,7.9c-0.1,5.5-2.9,10.3,0,15.5c0.6,1,1.3,0.7,1.7,1.8
	c0.5-2.5,3.4-4.2,3.8-6.6c0.6-3.7-0.3-4.4,2.1-6.8c2-2,3-5.6,5.7-6.9c2-0.9,1.7-0.1,2.4-2.4c0.4-1.4,1.4-2.3,2.1-3.8
	c1.7-3.8-3.1-3.3-5.5-4.8c-1.4-0.9-2-2.5-3.4-3.3c-1.1-0.7-2.8-1.2-4-1.7c-2.7-1.3-5-1.2-7.7-0.7C45.1,68.3,45.1,71.7,44.7,72.7z"/>
</svg>
