<?xml version="1.0" encoding="utf-8"?>
<!-- Generator: Adobe Illustrator 19.2.0, SVG Export Plug-In . SVG Version: 6.00 Build 0)  -->
<svg version="1.1" id="Layer_1" xmlns="http://www.w3.org/2000/svg" xmlns:xlink="http://www.w3.org/1999/xlink" x="0px" y="0px"
	 height="90" width="90" viewBox="0 0 108 108" style="enable-background:new 0 0 108 108;" xml:space="preserve">
<style type="text/css">
	.st0{fill:#4FA4DB;}
	.st1{fill:none;stroke:#1A1A1A;stroke-width:6;stroke-linecap:round;stroke-linejoin:round;stroke-miterlimit:10;}
	.st2{fill:none;stroke:#1A1A1A;stroke-width:6;stroke-linecap:round;stroke-miterlimit:10;}
	.st3{fill:#E8007A;}
	.st4{fill:#1A1A1A;}
	.st5{fill:#FFFFFF;}
	.st6{fill:#FF0000;}
	.st7{fill-rule:evenodd;clip-rule:evenodd;fill:#00ABE8;}
	.st8{fill:#00ABE8;}
	.st9{fill:none;stroke:#CCCCCC;stroke-miterlimit:10;}
	.st10{fill:none;stroke:#1A1A1A;stroke-width:4;stroke-linecap:round;stroke-linejoin:round;stroke-miterlimit:10;}
	.st11{fill:none;stroke:#000000;stroke-width:6;stroke-miterlimit:10;}
	.st12{filter:url(#Adobe_OpacityMaskFilter);}
	.st13{mask:url(#mask-2_1_);}
	.st14{fill:none;stroke:#333333;stroke-width:8;stroke-linecap:round;}
	.st15{fill:#3FA9F5;}
	.st16{fill:#7AC943;}
	.st17{fill:none;stroke:#1A1A1A;stroke-width:4;stroke-linecap:round;stroke-miterlimit:10;}
	.st18{fill:#FFFFFF;stroke:#1A1A1A;stroke-width:6;stroke-linecap:round;stroke-linejoin:round;stroke-miterlimit:10;}
	.st19{fill:#FFFFFF;stroke:#1A1A1A;stroke-width:4;stroke-linecap:round;stroke-linejoin:round;stroke-miterlimit:10;}
	.st20{fill:none;stroke:#000000;stroke-width:4;stroke-linecap:round;stroke-linejoin:round;stroke-miterlimit:10;}
	.st21{fill:none;stroke:#FF1D25;stroke-width:4;stroke-linecap:round;stroke-linejoin:round;stroke-miterlimit:10;}
</style>
<g>
	<path class="st4" d="M54,4c27.6,0,50,22.4,50,50c0,27.6-22.4,50-50,50S4,81.6,4,54C4,26.4,26.4,4,54,4 M54,0C24.2,0,0,24.2,0,54
		c0,29.8,24.2,54,54,54s54-24.2,54-54C108,24.2,83.8,0,54,0L54,0z"/>
</g>
<g>
	<circle cx="35.4" cy="43.3" r="3"/>
	<circle cx="35.4" cy="55.3" r="3"/>
	<circle cx="35.4" cy="67.3" r="3"/>
	<line class="st10" x1="47" y1="43" x2="67" y2="43"/>
	<line class="st10" x1="47" y1="55" x2="78" y2="55"/>
	<line class="st10" x1="47" y1="67" x2="71" y2="67"/>
</g>
</svg>
