<?xml version="1.0" encoding="utf-8"?>
<!-- Generator: Adobe Illustrator 16.0.0, SVG Export Plug-In . SVG Version: 6.00 Build 0)  -->
<!DOCTYPE svg PUBLIC "-//W3C//DTD SVG 1.1//EN" "http://www.w3.org/Graphics/SVG/1.1/DTD/svg11.dtd">
<svg version="1.1" id="Layer_1" xmlns="http://www.w3.org/2000/svg" xmlns:xlink="http://www.w3.org/1999/xlink" x="0px" y="0px"
	 height="90" width="90" viewBox="0 0 108 108" enable-background="new 0 0 108 108" xml:space="preserve">
<g>
	<path fill="#1A1A1A" d="M54,4c27.6,0,50,22.4,50,50c0,27.6-22.4,50-50,50C26.4,104,4,81.6,4,54C4,26.4,26.4,4,54,4 M54,0
		C24.2,0,0,24.2,0,54s24.2,54,54,54s54-24.2,54-54S83.8,0,54,0L54,0z"/>
</g>
<g>
	
		<line fill="none" stroke="#1A1A1A" stroke-width="4" stroke-linecap="round" stroke-linejoin="round" stroke-miterlimit="10" x1="54.05" y1="58.5" x2="54.05" y2="75.2"/>
	
		<polygon fill="none" stroke="#1A1A1A" stroke-width="4" stroke-linecap="round" stroke-linejoin="round" stroke-miterlimit="10" points="
		70.75,38.5 54.05,60.9 37.25,38.5 	"/>
</g>
</svg>
