<svg xmlns="http://www.w3.org/2000/svg" viewBox="0 0 50 50" height="30" width="30" style="box-shadow:none;border-radius:0px"><path d="M50 25c0 13.81-11.193 25-25 25S0 38.81 0 25 11.193 0 25 0s25 11.19 25 25z" fill="#333"/><path d="M19.617 36.217h-4.795V20.804h4.795v15.413zM17.22 18.695c-1.538 0-2.778-1.244-2.778-2.778 0-1.532 1.24-2.777 2.78-2.777 1.532 0 2.776 1.245 2.776 2.777 0 1.534-1.245 2.778-2.777 2.778zm20.34 17.522H32.77v-7.495c0-1.787-.034-4.087-2.49-4.087-2.493 0-2.873 1.947-2.873 3.958v7.624h-4.786V20.804h4.592v2.105h.066c.64-1.212 2.202-2.49 4.533-2.49 4.848 0 5.744 3.19 5.744 7.343v8.454z" fill="#FFF"/></svg>